<svg width="1600" height="520" viewBox="0 0 1600 520" fill="none" xmlns="http://www.w3.org/2000/svg">
  <rect width="1600" height="520" fill="#F5F0E8"/>
  <rect x="70" y="70" width="1460" height="380" rx="26" fill="#E8DCC5"/>
  <circle cx="260" cy="260" r="140" fill="#D8B98C" fill-opacity="0.5"/>
  <circle cx="1380" cy="190" r="110" fill="#CBAA7A" fill-opacity="0.35"/>
  <path d="M820 160C867 160 905 198 905 245V318C905 365 867 403 820 403H700C653 403 615 365 615 318V245C615 198 653 160 700 160H820ZM775 210H745C709 210 680 239 680 275V288C680 324 709 353 745 353H775C811 353 840 324 840 288V275C840 239 811 210 775 210Z" fill="#223B2E"/>
  <path d="M884 285L1106 285" stroke="#223B2E" stroke-width="18" stroke-linecap="round"/>
  <path d="M884 330L1196 330" stroke="#223B2E" stroke-width="18" stroke-linecap="round"/>
  <path d="M884 375L1088 375" stroke="#223B2E" stroke-width="18" stroke-linecap="round"/>
  <rect x="1000" y="155" width="290" height="110" rx="18" fill="#F9F6F1"/>
  <text x="1045" y="220" fill="#223B2E" font-size="46" font-family="Arial, sans-serif" font-weight="700">Alfanar</text>
  <text x="1045" y="260" fill="#5A4A3A" font-size="22" font-family="Arial, sans-serif">Fresh Collection</text>
</svg>
